#define latex_width 64
#define latex_height 64
static unsigned char latex_bits[] = {
  0x00, 0x00, 0x00, 0x00, 0x00, 0x00, 0x00, 0x00, 0x00, 0x00, 0x00, 0x00,
  0x00, 0x00, 0x00, 0x00, 0x00, 0x00, 0x80, 0xff, 0x07, 0x00, 0x00, 0x00,
  0x00, 0x00, 0x60, 0x00, 0x1c, 0x00, 0x00, 0x00, 0x00, 0x00, 0x18, 0x28,
  0xe4, 0x00, 0x00, 0x00, 0x00, 0x00, 0x16, 0x50, 0x28, 0x01, 0x00, 0x00,
  0x00, 0x00, 0x11, 0x51, 0x50, 0x02, 0x00, 0x00, 0x00, 0x80, 0x08, 0x91,
  0x90, 0x04, 0x00, 0x00, 0x00, 0x40, 0x8c, 0x90, 0xa0, 0x08, 0x00, 0x00,
  0x00, 0x40, 0x84, 0x20, 0x41, 0x11, 0x00, 0x00, 0x00, 0x20, 0x44, 0x40,
  0x41, 0x11, 0x00, 0x00, 0x00, 0x20, 0x00, 0x40, 0x42, 0x11, 0x00, 0x00,
  0x00, 0x50, 0xf2, 0x8c, 0x82, 0x12, 0x00, 0x00, 0x00, 0x50, 0x42, 0x86,
  0x82, 0x12, 0x00, 0x00, 0x00, 0x50, 0xc7, 0x8c, 0x82, 0xe2, 0x07, 0x00,
  0x00, 0x50, 0x45, 0x92, 0x84, 0x30, 0x08, 0x00, 0x00, 0xd0, 0xc9, 0x01,
  0x04, 0x08, 0x08, 0x00, 0x00, 0x10, 0x00, 0x00, 0x20, 0xc4, 0x09, 0x00,
  0x00, 0x10, 0x44, 0x00, 0x00, 0xa2, 0x08, 0x00, 0x00, 0x10, 0x44, 0x00,
  0x00, 0xb2, 0x08, 0x00, 0x00, 0x10, 0x44, 0x08, 0xe0, 0xb1, 0x08, 0x00,
  0xc0, 0x13, 0x82, 0x00, 0x18, 0x3b, 0x44, 0x00, 0x20, 0x94, 0x00, 0x00,
  0x86, 0x2e, 0x66, 0x00, 0x20, 0x08, 0x00, 0x80, 0x4d, 0x0e, 0xdb, 0x00,
  0x20, 0x08, 0x00, 0x60, 0x60, 0x8e, 0x80, 0x04, 0x20, 0x09, 0x00, 0xd8,
  0x31, 0x27, 0x40, 0x06, 0xa0, 0x16, 0x80, 0x07, 0x18, 0x62, 0xb6, 0x05,
  0xa0, 0x23, 0x70, 0xe0, 0x0b, 0x4c, 0x08, 0x04, 0x40, 0xe5, 0xcf, 0x1f,
  0x06, 0x13, 0x0c, 0x04, 0x80, 0x02, 0x50, 0x0f, 0x80, 0x14, 0x08, 0x03,
  0x40, 0xe3, 0x30, 0x00, 0x04, 0x02, 0xe0, 0x00, 0x00, 0xc7, 0x0f, 0x00,
  0x02, 0xc1, 0x31, 0x21, 0xc0, 0x3c, 0x00, 0x10, 0x02, 0x38, 0x14, 0x31,
  0x70, 0x09, 0x00, 0x18, 0x02, 0x04, 0x07, 0x2a, 0x90, 0x00, 0x1c, 0x08,
  0x02, 0xe1, 0x01, 0x14, 0xa8, 0xc0, 0x14, 0x00, 0x02, 0x3e, 0x80, 0x13,
  0x88, 0xc0, 0x22, 0x00, 0x01, 0x00, 0xc0, 0x09, 0x90, 0x00, 0x22, 0x00,
  0x01, 0x00, 0xd8, 0x04, 0x30, 0x01, 0x42, 0x80, 0x00, 0xc0, 0x7f, 0x02,
  0xf0, 0x01, 0x81, 0x7f, 0x00, 0xf0, 0xa1, 0x01, 0x90, 0x01, 0x01, 0x00,
  0x00, 0x00, 0x44, 0x00, 0x50, 0x82, 0x00, 0x00, 0x00, 0xc0, 0x80, 0x00,
  0xe0, 0x7d, 0x00, 0x00, 0x00, 0x80, 0xe1, 0x00, 0x40, 0x05, 0x00, 0x00,
  0x00, 0x00, 0x18, 0x00, 0x70, 0x04, 0x70, 0x00, 0x00, 0x80, 0x07, 0x00,
  0x60, 0x04, 0x3e, 0x00, 0x04, 0x80, 0x00, 0x00, 0x60, 0x84, 0x1f, 0x00,
  0x38, 0x40, 0x00, 0x00, 0x40, 0x02, 0x0c, 0x20, 0x08, 0x20, 0x00, 0x00,
  0x00, 0x00, 0x08, 0x00, 0x08, 0x20, 0x00, 0x00, 0x00, 0x06, 0x10, 0x00,
  0x04, 0x10, 0x00, 0x00, 0x00, 0x04, 0x10, 0x00, 0x02, 0x10, 0x00, 0x00,
  0x00, 0x04, 0x20, 0x00, 0x01, 0xf8, 0x00, 0x00, 0x00, 0x08, 0x20, 0xc0,
  0x00, 0x1c, 0x01, 0x00, 0x00, 0x08, 0xc0, 0x3f, 0x00, 0x02, 0x01, 0x00,
  0x00, 0x10, 0x20, 0x00, 0x80, 0x91, 0x01, 0x00, 0x00, 0x10, 0x10, 0x00,
  0x60, 0x70, 0x01, 0x00, 0x00, 0x20, 0x08, 0x00, 0x18, 0x3d, 0x02, 0x00,
  0x00, 0xc0, 0x07, 0x00, 0x04, 0x2f, 0x04, 0x00, 0x00, 0x00, 0x01, 0x00,
  0x66, 0x4b, 0x3b, 0x00, 0x00, 0x00, 0x06, 0x00, 0xcd, 0xc8, 0x44, 0x00,
  0x00, 0x00, 0x08, 0xc0, 0x3e, 0x39, 0xbc, 0x00, 0x00, 0x00, 0xf0, 0x3f,
  0x0d, 0x47, 0xd6, 0x00, 0x00, 0x00, 0x00, 0x80, 0x90, 0x87, 0x29, 0x01,
  0x00, 0x00, 0x00, 0xd0, 0xb0, 0x28, 0x45, 0x01, };
